<?xml version="1.0" encoding="UTF-8" standalone="no"?>
<svg
   viewBox="0 0 100 100"
   class="w-full"
   fill="hsl(14.8, 63.1%, 59.6%)"
   version="1.1"
   id="svg230"
   sodipodi:docname="Claudometer.svg"
   inkscape:version="1.2.2 (b0a8486541, 2022-12-01)"
   xmlns:inkscape="http://www.inkscape.org/namespaces/inkscape"
   xmlns:sodipodi="http://sodipodi.sourceforge.net/DTD/sodipodi-0.dtd"
   xmlns="http://www.w3.org/2000/svg"
   xmlns:svg="http://www.w3.org/2000/svg">
  <defs
     id="defs234" />
  <sodipodi:namedview
     id="namedview232"
     pagecolor="#808080"
     bordercolor="#000000"
     borderopacity="0.25"
     inkscape:showpageshadow="2"
     inkscape:pageopacity="0"
     inkscape:pagecheckerboard="0"
     inkscape:deskcolor="#d1d1d1"
     showgrid="false"
     inkscape:zoom="4.5357257"
     inkscape:cx="68.236049"
     inkscape:cy="65.48015"
     inkscape:window-width="1920"
     inkscape:window-height="1008"
     inkscape:window-x="0"
     inkscape:window-y="0"
     inkscape:window-maximized="1"
     inkscape:current-layer="svg230" />
  <path
     id="path401"
     style="fill:#ffffff;stroke-width:3.56787;stroke-dasharray:14.2715, 7.13575"
     d="m 5.005859,5 v 95 H 9.9999996 100 V 95.005859 H 9.9999996 V 5 Z" />
  <path
     id="rect396"
     style="fill:#000000;stroke-width:3.56787;stroke-dasharray:14.2715, 7.13575"
     d="M 0 0 L 0 95 L 4.9941406 95 L 94.994141 95 L 94.994141 90.005859 L 4.9941406 90.005859 L 4.9941406 0 L 0 0 z " />
  <path
     d="m 22.635,64.85 17.73,-9.9 0.27,-0.9 -0.27,-0.45 h -0.9 l -2.97,-0.18 -10.08,-0.27 -8.82,-0.45 -8.55,-0.45 -2.16,-0.45 -1.89,-2.7 0.18,-1.35 1.8,-1.17 2.61,0.18 5.67,0.45 8.55,0.54 6.21,0.36 9.18,1.08 h 1.44 l 0.18,-0.63 -0.45,-0.36 -0.36,-0.36 -8.91,-5.94 -9.54,-6.3 -5.04,-3.69 -2.7,-1.8 -1.35,-1.8 -0.54,-3.78 2.43,-2.7 3.33,0.27 0.81,0.18 3.33,2.61 7.2,5.49 9.27,7.02 1.35,1.08 0.54,-0.36 0.09,-0.27 -0.63,-0.99 -4.95,-9.36 -5.4,-9.36 -2.43,-3.87 -0.63,-2.34 c -0.27,-0.9 -0.36,-1.8 -0.36,-2.7 l 2.7,-3.78 1.62,-0.45 3.78,0.54 1.44,1.26 2.34,5.4 3.69,8.37 5.85,11.34 1.8,3.42 0.9,3.06 0.27,0.9 h 0.63 v -0.45 l 0.45,-6.48 0.9,-7.83 0.9,-10.08 0.27,-2.88 1.44,-3.42 2.7,-1.8 2.34,0.99 1.8,2.61 -0.27,1.62 -0.99,6.93 -2.34,10.89 -1.35,7.38 h 0.81 l 0.9,-0.99 3.69,-4.86 6.21,-7.74 2.7,-3.15 3.24,-3.33 2.07,-1.62 h 3.87 l 2.79,4.23 -1.26,4.41 -3.96,5.04 -3.33,4.23 -4.77,6.39 -2.88,5.13 0.27,0.36 h 0.63 l 10.8,-2.34 5.76,-0.99 6.84,-1.17 3.15,1.44 0.36,1.44 -1.26,3.06 -7.38,1.8 -8.64,1.8 -12.87,2.97 -0.18,0.09 0.18,0.27 5.76,0.54 2.52,0.18 h 6.12 l 11.34,0.9 2.97,1.8 1.71,2.43 -0.27,1.8 -4.59,2.34 -6.12,-1.44 -14.4,-3.42 -4.86,-1.17 h -0.72 v 0.36 l 4.14,4.05 7.47,6.75 9.54,8.73 0.45,2.16 -1.17,1.8 -1.26,-0.18 -8.28,-6.3 -3.24,-2.7 -7.2,-6.12 h -0.45 v 0.63 l 1.62,2.43 8.82,13.23 0.45,4.05 -0.63,1.26 -2.34,0.9 -2.43,-0.54 -5.22,-7.2 -5.4,-8.1 -4.23,-7.38 -0.45,0.36 -2.61,27.18 -1.17,1.35 -2.7,1.08 -2.25,-1.8 -1.26,-2.7 1.26,-5.58 1.44,-7.2 1.17,-5.76 1.08,-7.11 0.63,-2.34 v -0.18 h -0.63 l -5.4,7.47 -8.1,11.07 -6.48,6.84 -1.53,0.63 -2.7,-1.35 0.27,-2.52 1.44,-2.07 9,-11.52 5.4,-7.11 3.6,-4.14 -0.09,-0.45 h -0.27 l -23.76,15.48 -4.23,0.54 -1.8,-1.8 0.18,-2.7 0.9,-0.9 7.2,-4.95 z"
     id="path228"
     style="stroke-width:0.9" />
  <path
     id="path520"
     style="color:#000000;fill:#00d400;-inkscape-stroke:none"
     d="M 100 16.845703 L 86.900391 37.552734 L 74.015625 29.794922 L 52.158203 53.597656 L 40.197266 45.044922 L 24.507812 67.855469 L 15.025391 57.677734 L 0 72.589844 L 0 79.634766 L 14.884766 64.863281 L 25.097656 75.824219 L 41.431641 52.074219 L 52.847656 60.238281 L 74.935547 36.185547 L 88.509766 44.357422 L 100 26.199219 L 100 16.845703 z " />
</svg>
